<svg xmlns="http://www.w3.org/2000/svg" xmlns:xlink="http://www.w3.org/1999/xlink" width="500" zoomAndPan="magnify" viewBox="0 0 375 374.999991" height="500" preserveAspectRatio="xMidYMid meet" version="1.2"><defs><clipPath id="bf609e5233"><path d="M 62.136719 62.136719 L 312.863281 62.136719 L 312.863281 312.863281 L 62.136719 312.863281 Z M 62.136719 62.136719 "/></clipPath><clipPath id="e9169f2446"><path d="M 187.5 62.136719 C 118.265625 62.136719 62.136719 118.265625 62.136719 187.5 C 62.136719 256.734375 118.265625 312.863281 187.5 312.863281 C 256.734375 312.863281 312.863281 256.734375 312.863281 187.5 C 312.863281 118.265625 256.734375 62.136719 187.5 62.136719 Z M 187.5 62.136719 "/></clipPath><clipPath id="6258e07295"><path d="M 129.148438 93.070312 L 267.484375 93.070312 L 267.484375 286 L 129.148438 286 Z M 129.148438 93.070312 "/></clipPath></defs><g id="a9f92c75dd"><g clip-rule="nonzero" clip-path="url(#bf609e5233)"><g clip-rule="nonzero" clip-path="url(#e9169f2446)"><path style=" stroke:none;fill-rule:nonzero;fill:#000000;fill-opacity:1;" d="M 62.136719 62.136719 L 312.863281 62.136719 L 312.863281 312.863281 L 62.136719 312.863281 Z M 62.136719 62.136719 "/></g></g><g clip-rule="nonzero" clip-path="url(#6258e07295)"><path style=" stroke:none;fill-rule:nonzero;fill:#ffffff;fill-opacity:1;" d="M 267.382812 147.933594 C 267.460938 178.332031 242.75 203.089844 212.371094 203.089844 L 182.402344 203.089844 C 169.410156 203.089844 158.875 213.625 158.875 226.617188 L 158.875 256.902344 L 130.238281 285.539062 L 130.238281 234.027344 C 130.238281 201.128906 156.910156 174.453125 189.8125 174.453125 L 212.375 174.453125 C 226.878906 174.453125 238.691406 162.683594 238.753906 148.183594 C 238.8125 133.621094 226.773438 121.699219 212.203125 121.699219 L 157.808594 121.699219 L 129.171875 93.070312 L 212.113281 93.070312 C 242.476562 93.070312 267.304688 117.570312 267.382812 147.933594 Z M 267.382812 147.933594 "/></g></g></svg>